PathFileType	4	(X/Y/Z)	./resultDataOpenSim/trcMotMarkerGrf/sub09/qtm-15-07.trc
DataRate	CameraRate	NumFrames	NumMarkers	Units	OrigDataRate	OrigDataStartFrame	OrigNumFrames
250.000000	250.000000	15	24	m	250.000000	411	469
Frame#	Time	L.Toe.Tip			R.Toe.Tip			L.Ankle.Lat			R.Ankle.Lat			L.Ankle.Med			R.Ankle.Med			L.Heel			R.Heel			L.Knee.Lat			R.Knee.Lat			L.Knee.Med			R.Knee.Med			L.Thigh.Upper			R.Thigh.Upper			L.ASIS			R.ASIS			V.Sacral			L.Acromium			R.Acromium			C7			L.Elbow			R.Elbow			L.Wrist.Lat			R.Wrist.Lat
		X1	Y1	Z1	X2	Y2	Z2	X3	Y3	Z3	X4	Y4	Z4	X5	Y5	Z5	X6	Y6	Z6	X7	Y7	Z7	X8	Y8	Z8	X9	Y9	Z9	X10	Y10	Z10	X11	Y11	Z11	X12	Y12	Z12	X13	Y13	Z13	X14	Y14	Z14	X15	Y15	Z15	X16	Y16	Z16	X17	Y17	Z17	X18	Y18	Z18	X19	Y19	Z19	X20	Y20	Z20	X21	Y21	Z21	X22	Y22	Z22	X23	Y23	Z23	X24	Y24	Z24

411	1.64	1.8345493	0.12112648	-0.06821616	1.092604	0.043096281	0.048638	1.6868608	0.089717164	-0.10415766	0.98312093	0.13005658	0.10272359	1.7020747	0.11613715	-0.010117384	1.0118435	0.1626841	0.013885583	1.6383948	0.025582963	-0.055536261	0.9146176	0.15105601	0.052066929	1.5654023	0.49083053	-0.14214522	1.2677616	0.49954772	0.15917089	1.5575649	0.48116911	-0.01550218	1.256082	0.48709653	0.034733387	1.4047969	0.8756356	-0.18272827	1.3084662	0.90149343	0.19587269	1.467317	0.96875377	-0.11663144	1.4546953	0.97510006	0.12352592	1.2914527	1.0206161	-0.016436156	1.4331932	1.4237446	-0.18381281	1.426511	1.4439725	0.1475508	1.3535475	1.4754653	-0.018757931	1.2746328	1.0915721	-0.23515843	1.2963662	1.0930482	0.25033939	1.3774443	0.85549955	-0.29409405	1.5405042	0.9562393	0.20242153
412	1.644	1.839312	0.11749528	-0.067679816	1.0929348	0.043128974	0.048823838	1.6913321	0.087201582	-0.10354593	0.98403262	0.1314873	0.10289277	1.7067651	0.11363502	-0.009572627	1.0139569	0.16358462	0.014609113	1.6421279	0.023860119	-0.054940996	0.91653605	0.1531355	0.052281839	1.5727908	0.4894831	-0.14229298	1.273181	0.49849308	0.15984939	1.5655584	0.48018234	-0.015692827	1.2612151	0.48562093	0.035444166	1.4115732	0.87402155	-0.18347913	1.3148797	0.89985965	0.19508151	1.4744162	0.96711786	-0.11733193	1.46135	0.97326759	0.12309002	1.2983077	1.0185759	-0.017190368	1.4390312	1.4221135	-0.18429325	1.4317827	1.4421215	0.14715011	1.3589944	1.4736139	-0.019300279	1.2804838	1.0900277	-0.23606444	1.3020348	1.0910236	0.2496323	1.3826457	0.85384378	-0.29520449	1.5463976	0.95433346	0.20245038
413	1.648	1.8437933	0.11320267	-0.06715189	1.0933118	0.043173063	0.048972819	1.6955392	0.084599461	-0.10294053	0.98523735	0.1330131	0.10301296	1.7110871	0.11090265	-0.0089720372	1.016221	0.16447735	0.015357482	1.6450816	0.022467343	-0.054532317	0.91859732	0.15530043	0.05242031	1.5801951	0.4880558	-0.14239628	1.2787147	0.49737774	0.16063011	1.5737347	0.47920671	-0.015862161	1.2668275	0.4840031	0.036277559	1.4182384	0.87241549	-0.18431942	1.3224321	0.89796878	0.19392587	1.4815347	0.96541671	-0.11803424	1.4680412	0.97138088	0.12264469	1.3051829	1.0165076	-0.017938484	1.4448655	1.4204348	-0.18478814	1.437067	1.4402071	0.14673157	1.3644266	1.4716989	-0.019867545	1.2863917	1.0884084	-0.23695467	1.3076942	1.0889438	0.24889877	1.3879228	0.85212698	-0.29630477	1.5522325	0.9523367	0.20252021
414	1.652	1.8480837	0.10788628	-0.066691647	1.0937173	0.043219662	0.049121902	1.6995398	0.082035898	-0.10228258	0.98660445	0.13454279	0.10321798	1.7151994	0.10813605	-0.0082673091	1.0186354	0.16536793	0.016147126	1.6472724	0.021645683	-0.054108	0.92080689	0.15755403	0.052496472	1.58769	0.48653496	-0.14251631	1.2842273	0.49625069	0.16155868	1.582024	0.47823085	-0.016045589	1.2728748	0.48222443	0.037212099	1.4248135	0.87081641	-0.18523927	1.3333338	0.89541013	0.19173877	1.4886319	0.96366189	-0.11871149	1.4747472	0.96943362	0.12217701	1.3120331	1.0144389	-0.018707458	1.4506915	1.4187134	-0.18529744	1.4423688	1.4382433	0.14629569	1.3698491	1.4697316	-0.020437295	1.2923451	1.0867283	-0.23783167	1.313339	1.0868033	0.24814595	1.3932744	0.85035138	-0.2974	1.558015	0.95024743	0.20262321
415	1.656	1.8522649	0.10123247	-0.066320066	1.0941372	0.043251088	0.049296889	1.7033283	0.079685109	-0.10156944	0.98815619	0.13602519	0.10359173	1.7192868	0.1055596	-0.0074880146	1.0211933	0.16626271	0.016994042	1.6488151	0.021613461	-0.053497774	0.92317317	0.15989854	0.052526407	1.5953015	0.48496803	-0.14272714	1.2897281	0.49511397	0.16263183	1.5903084	0.47729436	-0.016297306	1.2791645	0.48030147	0.038189917	1.4313081	0.86921264	-0.18621963	1.3493175	0.89186995	0.18800323	1.495657	0.96187917	-0.11933595	1.4814029	0.96742665	0.1216809	1.3188012	1.0124036	-0.019509607	1.4565104	1.4169535	-0.18582279	1.4476898	1.4362435	0.1458447	1.3752773	1.4677251	-0.020993474	1.2983253	1.0849912	-0.23870245	1.3189349	1.0846137	0.24736478	1.398702	0.84852125	-0.29849294	1.563748	0.94806693	0.2027582
416	1.66	1.856405	0.093292005	-0.06597928	1.0945632	0.043248404	0.049514661	1.7068371	0.07771063	-0.10090302	0.98990589	0.13747411	0.10412802	1.7234389	0.10329522	-0.0067540065	1.0238991	0.16716427	0.017922545	1.6499205	0.022417709	-0.052721589	0.92571188	0.16233778	0.052534066	1.6030058	0.48347489	-0.14306133	1.2952877	0.49392496	0.16381524	1.5984889	0.47648467	-0.016663364	1.285536	0.47823143	0.039161695	1.4377353	0.86758204	-0.1872456	1.3700199	0.88740345	0.18283541	1.5025555	0.96010877	-0.11990543	1.4878743	0.96537685	0.12116029	1.3254454	1.0104345	-0.020321054	1.4623241	1.4151613	-0.18636867	1.4530215	1.4342118	0.14538355	1.3807241	1.4656969	-0.021548974	1.304323	1.0831985	-0.23956998	1.3244004	1.0824101	0.24652877	1.404207	0.84664297	-0.2995818	1.56943	0.94579808	0.20292831
417	1.664	1.8605005	0.084658397	-0.06560061	1.0949903	0.043210401	0.049782711	1.7099935	0.076179492	-0.10044016	0.99171566	0.13898676	0.10482044	1.7275738	0.10132587	-0.006213921	1.0267754	0.16807014	0.018974443	1.6508408	0.023834121	-0.051996593	0.92844057	0.16488101	0.052560269	1.6108091	0.48223803	-0.14349067	1.3009577	0.49264278	0.16508837	1.6065994	0.47586472	-0.017136482	1.2919915	0.47593678	0.040140286	1.44411	0.86591046	-0.18830607	1.3928325	0.8824777	0.17700684	1.5092752	0.95839389	-0.12046252	1.4940038	0.96330365	0.12062072	1.3319531	1.0085548	-0.021104117	1.4681262	1.4133461	-0.18693948	1.4583603	1.4321482	0.14492107	1.3862029	1.4636718	-0.022136624	1.3103461	1.0813542	-0.24043248	1.3296365	1.0802358	0.24561461	1.4097857	0.84472509	-0.30066342	1.5750574	0.94344259	0.2031362
418	1.668	1.8643732	0.076298978	-0.065203515	1.0954178	0.043158992	0.050094665	1.7127988	0.07503431	-0.10028397	0.99323109	0.14077367	0.10575692	1.7315051	0.099593118	-0.0059661481	1.0298432	0.16898215	0.020193037	1.6517769	0.025486134	-0.051569361	0.93136948	0.16754799	0.05266488	1.6188282	0.48147535	-0.1439671	1.3067592	0.49126139	0.16645471	1.6148341	0.47544517	-0.017651667	1.2986319	0.47333869	0.041222687	1.4504513	0.86421407	-0.18938792	1.4148461	0.87763091	0.17136464	1.5157876	0.95676094	-0.12106524	1.4997945	0.96120588	0.12005196	1.3383384	1.0067758	-0.021843355	1.4739083	1.4115165	-0.18753986	1.4637131	1.4300623	0.14447006	1.391739	1.461681	-0.022781675	1.3164204	1.0794549	-0.24128758	1.3346578	1.0781115	0.24462017	1.4154319	0.84277733	-0.30173535	1.5806289	0.94099935	0.20338183
419	1.672	1.8677216	0.069052163	-0.064880322	1.0958401	0.043122499	0.050431794	1.7153548	0.074162302	-0.10042316	0.99401202	0.14309839	0.10708809	1.7350893	0.098094234	-0.0060198718	1.0330941	0.16992169	0.021598309	1.6528291	0.027062417	-0.051515055	0.93450109	0.17036749	0.052916666	1.6272934	0.48137798	-0.14445028	1.3126793	0.48980228	0.16791861	1.6233999	0.47529999	-0.018158373	1.3055123	0.47044921	0.042518329	1.4567845	0.86254597	-0.19046994	1.4345223	0.87315835	0.16635303	1.5221036	0.95521315	-0.12173935	1.5055168	0.95906257	0.11942153	1.3446346	1.0050966	-0.022534635	1.4796716	1.4096804	-0.18817168	1.46908	1.4279786	0.14404201	1.3973686	1.4597571	-0.023475639	1.3225748	1.0774966	-0.24213421	1.3396928	1.0760132	0.24358106	1.4211451	0.8408077	-0.30279477	1.5861465	0.9384661	0.20366362
420	1.676	1.8704014	0.063130042	-0.064662763	1.0962411	0.043120671	0.050772029	1.7178079	0.073487248	-0.10076266	0.9940571	0.14599492	0.10882549	1.7382997	0.09685942	-0.0063023919	1.0364909	0.17093189	0.023183411	1.6540217	0.028419055	-0.051707955	0.93783459	0.17336164	0.053376576	1.6364432	0.48200915	-0.14489335	1.3186766	0.48828607	0.16946572	1.6323868	0.47561388	-0.018671996	1.3126286	0.46735945	0.04405887	1.4631294	0.86098097	-0.1915237	1.4516292	0.8691148	0.16203905	1.5282677	0.95374796	-0.122478	1.511461	0.95686489	0.11870092	1.3508553	1.0034982	-0.023191791	1.4854259	1.4078492	-0.18882786	1.4744494	1.4259268	0.1436426	1.4031186	1.4579244	-0.024176463	1.3288143	1.0754938	-0.24297926	1.3450211	1.0738875	0.24255732	1.4269303	0.83882248	-0.30383687	1.5916109	0.93584595	0.20398091
421	1.68	1.8725955	0.058128884	-0.064434669	1.0966095	0.043161201	0.051105678	1.7202642	0.072984261	-0.10119255	0.99424955	0.14902415	0.11067767	1.7411662	0.095871114	-0.0066937051	1.0399927	0.1720635	0.02491827	1.65535	0.029564757	-0.052017726	0.94136535	0.17652614	0.054083929	1.6463521	0.48322599	-0.145262	1.3247316	0.48672022	0.1710682	1.6418295	0.47648069	-0.019218093	1.3200165	0.46417553	0.045813695	1.469481	0.85958693	-0.19252894	1.4664665	0.86545487	0.15833827	1.5343467	0.95237166	-0.12327387	1.5176436	0.95463678	0.11789361	1.3569608	1.0019531	-0.023866691	1.4911794	1.4060375	-0.18949332	1.4798144	1.4239274	0.14327279	1.4089803	1.4561861	-0.024843405	1.3351195	1.0734759	-0.2438422	1.3507212	1.0717039	0.24157619	1.4327923	0.83682918	-0.30485718	1.5970156	0.93315256	0.20433418
422	1.684	1.8746374	0.053579349	-0.064025161	1.0969549	0.043235519	0.051461651	1.7227605	0.072624279	-0.10162421	0.99578584	0.15157558	0.11225135	1.7436894	0.095054961	-0.0070628596	1.0435852	0.17335607	0.026752833	1.6568031	0.030617036	-0.052538546	0.94508132	0.17982606	0.055050388	1.6568234	0.48471022	-0.14559347	1.3308867	0.48511583	0.17270399	1.6517628	0.47774652	-0.019774495	1.3277498	0.46096815	0.047735293	1.4758077	0.85840434	-0.1934919	1.4793603	0.86212667	0.15515977	1.5404053	0.95109304	-0.12412085	1.5238828	0.95241901	0.11702686	1.3629185	1.0004446	-0.02456563	1.496939	1.4042572	-0.19015301	1.4851844	1.421987	0.1429266	1.4149074	1.4545198	-0.025472443	1.3414747	1.0714697	-0.24473841	1.356675	1.0694914	0.24060547	1.4387333	0.83483804	-0.30585387	1.6023485	0.93040429	0.20472487
423	1.688	1.8767442	0.049436235	-0.063377134	1.0973362	0.043341831	0.051898061	1.7252882	0.072334985	-0.10198198	0.99903399	0.15345184	0.11343697	1.7458427	0.094338302	-0.0072867142	1.0472975	0.17481584	0.028634811	1.6583509	0.031726788	-0.053571264	0.94897368	0.18320973	0.056251751	1.6674629	0.4861075	-0.14597889	1.3372124	0.4835035	0.17436705	1.6620755	0.47921262	-0.020330732	1.3357825	0.45776381	0.049742195	1.4820757	0.8574445	-0.19444285	1.4905204	0.85909928	0.15244662	1.5464611	0.94991651	-0.12498909	1.5300265	0.95024297	0.11613107	1.3687668	0.99896106	-0.025192369	1.5027196	1.402518	-0.19080148	1.4905831	1.42011	0.14258864	1.4208352	1.4528921	-0.026098354	1.3478827	1.0694948	-0.2456577	1.3627242	1.0673116	0.23959153	1.4447524	0.83286222	-0.30682333	1.6075976	0.92761363	0.20515475
424	1.692	1.8789066	0.046034521	-0.062605116	1.0978778	0.043529474	0.052431842	1.7277867	0.07202689	-0.10219704	1.0032352	0.15499757	0.1145017	1.7476241	0.093686767	-0.0072680475	1.0511856	0.17640526	0.030528019	1.6599006	0.032933659	-0.055221138	0.95306259	0.18663071	0.057619955	1.6778827	0.48717244	-0.14645261	1.3437485	0.48192714	0.17605951	1.6723568	0.48093066	-0.020970626	1.3439226	0.45457777	0.051741561	1.4882753	0.85669579	-0.19541233	1.50007	0.85635783	0.15016677	1.5524826	0.94884824	-0.12583173	1.5360323	0.94812076	0.11522913	1.3745687	0.99746951	-0.025655458	1.5085457	1.4008322	-0.19144531	1.4960358	1.4183077	0.14223983	1.4267078	1.4512682	-0.026753522	1.3543519	1.067565	-0.24657001	1.3687658	1.0652211	0.23850386	1.450847	0.83091734	-0.30776082	1.612753	0.92478589	0.20562193
425	1.696	1.8809089	0.043651796	-0.061908236	1.0986922	0.043868027	0.053024397	1.7300965	0.071664134	-0.10222851	1.0071853	0.15676844	0.11586007	1.7490555	0.093100704	-0.0069779704	1.0552878	0.17806665	0.032413216	1.6612863	0.034065444	-0.05701091	0.95739113	0.19006732	0.059072878	1.6878475	0.48782258	-0.14693592	1.3504787	0.48043455	0.17777904	1.6821155	0.48303197	-0.021784583	1.3520392	0.45144139	0.053699894	1.4944252	0.8561305	-0.19640848	1.5081015	0.85389336	0.14829686	1.5584429	0.9478987	-0.12662254	1.5419274	0.94605424	0.11432923	1.3803463	0.9959262	-0.025970835	1.5144277	1.3992093	-0.19208507	1.5015569	1.4165855	0.14186372	1.4325	1.4496165	-0.027421893	1.360884	1.0656862	-0.2474506	1.37479	1.0632589	0.23734744	1.4570177	0.82901705	-0.30866652	1.6178118	0.92192438	0.20611883
